<svg width="22" height="22" viewBox="0 0 22 22" fill="none" xmlns="http://www.w3.org/2000/svg">
<g clip-path="url(#clip0_71_254)">
<path d="M19.9759 17.1449C19.6432 17.9135 19.2494 18.6211 18.7931 19.2715C18.1711 20.1583 17.6619 20.7721 17.2694 21.113C16.661 21.6724 16.0092 21.959 15.3112 21.9753C14.8101 21.9753 14.2058 21.8327 13.5024 21.5434C12.7966 21.2555 12.1481 21.113 11.555 21.113C10.9331 21.113 10.266 21.2555 9.55256 21.5434C8.83799 21.8327 8.26234 21.9834 7.82222 21.9984C7.15287 22.0269 6.4857 21.7322 5.81974 21.113C5.39469 20.7422 4.86304 20.1067 4.22615 19.2063C3.54281 18.2449 2.98102 17.13 2.5409 15.8589C2.06954 14.486 1.83325 13.1565 1.83325 11.8694C1.83325 10.3951 2.15183 9.12345 2.78995 8.05784C3.29145 7.20191 3.95863 6.52672 4.79365 6.03105C5.62867 5.53539 6.53092 5.2828 7.50255 5.26664C8.0342 5.26664 8.73139 5.4311 9.59778 5.7543C10.4617 6.07858 11.0165 6.24303 11.2597 6.24303C11.4415 6.24303 12.0578 6.05074 13.1025 5.66739C14.0904 5.31186 14.9242 5.16466 15.6073 5.22265C17.4582 5.37202 18.8488 6.10167 19.7735 7.4162C18.1182 8.4192 17.2993 9.82404 17.3156 11.6262C17.3305 13.03 17.8398 14.1981 18.8406 15.1256C19.2942 15.5561 19.8007 15.8888 20.3643 16.1251C20.242 16.4795 20.113 16.819 19.9759 17.1449V17.1449ZM15.7308 0.44037C15.7308 1.54062 15.3289 2.56792 14.5277 3.51878C13.5608 4.64917 12.3913 5.30236 11.1231 5.19929C11.1069 5.06729 11.0975 4.92837 11.0975 4.78239C11.0975 3.72615 11.5573 2.59576 12.3739 1.67152C12.7816 1.20356 13.3 0.814453 13.9288 0.504058C14.5562 0.198295 15.1496 0.0292007 15.7077 0.000244141C15.724 0.147331 15.7308 0.294426 15.7308 0.440355V0.44037Z" fill="white"/>
</g>
<defs>
<clipPath id="clip0_71_254">
<rect width="22" height="22" fill="white"/>
</clipPath>
</defs>
</svg>
