<svg width="25" height="24" viewBox="0 0 33 32" fill="none" xmlns="http://www.w3.org/2000/svg">
<path d="M16.9401 2C9.19434 2 2.91382 8.43125 2.91382 16.3562C2.91382 22.7 6.93386 28.075 12.5068 29.975C12.585 29.9919 12.6648 30.0003 12.7448 30C13.2645 30 13.4649 29.6187 13.4649 29.2875C13.4649 28.9437 13.4523 28.0437 13.4461 26.8437C12.9821 26.9523 12.5074 27.0089 12.0309 27.0125C9.3321 27.0125 8.71845 24.9187 8.71845 24.9187C8.07975 23.2625 7.15928 22.8187 7.15928 22.8187C5.93824 21.9625 7.15302 21.9375 7.24694 21.9375H7.25321C8.6621 22.0625 9.40098 23.425 9.40098 23.425C10.1023 24.65 11.0416 24.9937 11.8806 24.9937C12.4354 24.9827 12.9817 24.8549 13.4836 24.6187C13.6089 23.6937 13.9721 23.0625 14.3728 22.7C11.2607 22.3375 7.98583 21.1062 7.98583 15.6062C7.98583 14.0375 8.5306 12.7562 9.42603 11.7562C9.28201 11.3938 8.79986 9.93125 9.56379 7.95625C9.66626 7.93178 9.77158 7.92126 9.87687 7.925C10.3841 7.925 11.53 8.11875 13.421 9.43125C15.7188 8.78957 18.1489 8.78957 20.4467 9.43125C22.3377 8.11875 23.4836 7.925 23.9908 7.925C24.0961 7.92126 24.2015 7.93178 24.3039 7.95625C25.0679 9.93125 24.5857 11.3938 24.4417 11.7562C25.3371 12.7625 25.8819 14.0437 25.8819 15.6062C25.8819 21.1187 22.6007 22.3312 19.4761 22.6875C19.9771 23.1312 20.4279 24.0062 20.4279 25.3437C20.4279 27.2625 20.4091 28.8125 20.4091 29.2812C20.4091 29.6187 20.6032 30 21.123 30C21.2071 30.0004 21.291 29.992 21.3734 29.975C26.9526 28.075 30.9664 22.6938 30.9664 16.3562C30.9664 8.43125 24.6859 2 16.9401 2Z" fill="#808080"/>
</svg>
